<svg xmlns="http://www.w3.org/2000/svg" viewBox="0 0 189 49.61"><defs><style>.cls-1{fill:#e3558b;}.cls-2,.cls-4{fill:#fff;}.cls-2{opacity:0.1;}.cls-3{opacity:0.3;}</style></defs><title>アセット 32</title><g id="レイヤー_2" data-name="レイヤー 2"><g id="レイヤー_1-2" data-name="レイヤー 1"><rect class="cls-1" width="49.61" height="49.61"/><circle class="cls-1" cx="24.97" cy="24.81" r="20.1"/><circle class="cls-2" cx="24.97" cy="24.81" r="13.4"/><g class="cls-3"><path class="cls-4" d="M25,4.7a20.1,20.1,0,1,0,20.1,20.1A20.1,20.1,0,0,0,25,4.7Zm0,33.51a13.4,13.4,0,1,1,13.4-13.4A13.4,13.4,0,0,1,25,38.21Z"/></g><circle class="cls-4" cx="8.3" cy="24.81" r="0.61"/><circle class="cls-4" cx="41.64" cy="24.81" r="0.61"/><path class="cls-4" d="M41.87,29.56l-.37-.07.23-1.17-.5-.1v.07c-.14.23,0,.65-.2.87,0,0,0,0-.1,0l-.27-.1a7.76,7.76,0,0,0,.2-.94H40.8c-.22-.14-.62-.05-.84-.2,0,0,0-.06,0-.13a1,1,0,0,0,.07-.27h0c.15.1.37.05.57.1.48.12,1.1.13,1.57.3C42.08,28.5,41.95,29,41.87,29.56Z"/><path class="cls-4" d="M7.76,28.29l.37,0a10.09,10.09,0,0,0,.23,1.27,1.72,1.72,0,0,0,.47-.13,5.07,5.07,0,0,1-.23-1.17h.07a.63.63,0,0,1,.3-.07,3.73,3.73,0,0,0,.23,1.11s0,0,.1,0a1.15,1.15,0,0,1,.47-.13l-.23-1.27.37-.07v.07l.34,1.54h-.07a1.86,1.86,0,0,1-.47.13c-.51.17-1.06.38-1.61.5C8.06,29.47,7.79,28.94,7.76,28.29Z"/><path class="cls-4" d="M10.71,30.84c0,.16.08.21.1.37a7.53,7.53,0,0,0-1.37,1h0a8.92,8.92,0,0,1,1.51-.7.56.56,0,0,0,.13.27c0,.06,0,0,0,.07a2.82,2.82,0,0,1-.47.23,6.6,6.6,0,0,1-1.51.77c-.06-.24-.2-.43-.27-.67.42-.24.77-.71,1.24-.87v0c-.51.05-1,.22-1.51.23a5,5,0,0,1-.2-.7,6.35,6.35,0,0,0,1.11-.4c.33-.14.67-.19,1-.34v.07a.6.6,0,0,1,.1.3,10.09,10.09,0,0,1-1.51.6v0H9.2Z"/><path class="cls-4" d="M41.17,30.17a13.23,13.23,0,0,0-1.61-.54l-.1.3c.1.24.63.22.84.37a.42.42,0,0,1-.1.3c-.16.4-.78.18-1.07.37-.09.05-.1.29-.17.37v0a2,2,0,0,0,1.07-.2c.12.08,0,.27.1.4a.69.69,0,0,0,.4.3c.12.09.27.05.44,0A2.36,2.36,0,0,0,41.5,31a2.09,2.09,0,0,1,.17-.57C41.61,30.19,41.37,30.23,41.17,30.17Zm-.3,1.31a.41.41,0,0,1-.4-.1,6.22,6.22,0,0,1,.2-.94,5.07,5.07,0,0,1,.54.17A7.31,7.31,0,0,1,40.87,31.47Z"/><path class="cls-4" d="M40.77,32.75A4.48,4.48,0,0,1,40,34.22c-.08-.1-.21-.12-.27-.23a2.76,2.76,0,0,0,.5-1h0s0,0,0,0a.64.64,0,0,0-.4-.2,3.11,3.11,0,0,1-.5.94c-.1-.09-.24-.11-.3-.23a2.23,2.23,0,0,0,.47-.94c-.17,0-.41-.25-.54-.2-.18.2-.34.87-.6.94-.08-.1-.18-.11-.23-.23.2-.22.5-1.17.74-1.24a3.05,3.05,0,0,0,.67.34A4.63,4.63,0,0,0,40.77,32.75Z"/><path class="cls-4" d="M10.88,32.75c-.32.22-.71.22-.94.54a1.05,1.05,0,0,0,.47,1.57C11.74,35.24,12.89,32.7,10.88,32.75Zm.7,1.11c-.18.2-.74.94-1.17.54-.26-.09-.3-.41-.27-.7a2.49,2.49,0,0,1,.34-.37c.14-.09.33-.1.47-.2l.34,0a1.78,1.78,0,0,0,.27.23A2.09,2.09,0,0,1,11.58,33.85Z"/><path class="cls-4" d="M37.79,33.59l1.88,1.24a11.5,11.5,0,0,1-.9,1.27h0v0a.63.63,0,0,1-.27-.23,3,3,0,0,0,.67-.9,1.23,1.23,0,0,1-.34-.23l-.07,0a2.73,2.73,0,0,0-.57.77l-.07,0a.58.58,0,0,1-.27-.2,2.85,2.85,0,0,0,.6-.84,1.17,1.17,0,0,1-.47-.34h0v0a4.71,4.71,0,0,0-.64.84h-.07c-.08-.11-.18-.13-.23-.27A4,4,0,0,0,37.79,33.59Z"/><path class="cls-4" d="M13.39,35.29c-.3.11-.46.46-.74.6a1,1,0,0,0-.2-.23,3.77,3.77,0,0,1,.3-1.11c-.1-.1-.15-.22-.27-.3-.1.37-.37.61-.37,1.07a1.16,1.16,0,0,0-.6-.1c-.05.05-.1.05-.17.1s-.17.23-.27.34c0,.76.55.93.84,1.41.22-.08.3-.31.47-.44a9.5,9.5,0,0,0,.9-.84c.09-.09.2-.13.27-.23h0v0A.64.64,0,0,1,13.39,35.29ZM12,36.5v0h0a2.26,2.26,0,0,0-.47-.57.46.46,0,0,1,.13-.37h.23c.15.16.39.32.47.54h0A.77.77,0,0,1,12,36.5Z"/><path class="cls-4" d="M14,36.23l-.44.13a1.48,1.48,0,0,0-.8,1.41c.26.27.52.71.9.84l.07,0c.2-.31.49-.55.7-.84A4.24,4.24,0,0,1,15.1,37V36.9C14.71,36.66,14.54,36.33,14,36.23Zm-.34,1.88v0h0a6.3,6.3,0,0,0-.5-.54c0-.6.43-.74.77-1,.37,0,.47.25.7.4A6.25,6.25,0,0,1,13.66,38.11Z"/><path class="cls-4" d="M37,36.94c-.4-.3-.65-.8-1.07-1.07a3.26,3.26,0,0,1-.7.64l-.2.3a.71.71,0,0,0,.44.77v0h.34c-.12.34.11.49.23.67.78.18,1-.48,1.51-.8C37.47,37.24,37.2,37.08,37,36.94Zm-1.17.34c-.3,0-.39-.07-.44-.3.18-.2.42-.39.57-.6.16.11.24.29.4.4C36.24,37,36,37.08,35.84,37.27Zm.57.67a.78.78,0,0,1-.27-.07c0-.06,0,0,0-.07,0-.43.33-.48.5-.74.18.06.25.24.4.34A3.47,3.47,0,0,1,36.41,37.94Z"/><path class="cls-4" d="M15.6,37.3c.16.07.29.14.3.37a4.66,4.66,0,0,0-.17,1.44h0V39c.29-.24.49-1,.8-1.14a.8.8,0,0,0,.23.17,12.23,12.23,0,0,1-.9,1.44c-.1.16-.12.39-.34.44-.17-.16-.28-.11-.27-.47a12.26,12.26,0,0,0,.17-1.37h0a7,7,0,0,1-.87,1.21c-.09-.09-.21-.14-.3-.23h0C14.62,38.43,15.23,37.93,15.6,37.3Z"/><path class="cls-4" d="M34,37.51c.82,0,1.75.82,1.41,1.64-.18.42-1.24.9-1.47.23a.64.64,0,0,0,.23-.2,1.39,1.39,0,0,0,.5.13c.06-.06.13-.05.2-.1s.13-.19.2-.27a.93.93,0,0,0-1-1.07c-.09.09-.23.13-.3.23s0,.14-.1.2a.4.4,0,0,0,.2.27c.07-.07.31-.23.37-.2a1.12,1.12,0,0,1,.2.3c-.28.09-.45.32-.74.4-.09-.34-.41-.48-.44-.87.13-.14.18-.39.34-.5S33.85,37.6,34,37.51Z"/><path class="cls-4" d="M32.46,38.38c.07,0,.06,0,.1,0a3.83,3.83,0,0,1,.37.67,5.37,5.37,0,0,1,.7,1.24c-.23.06-.38.2-.6.27-.16-.46-.71-.71-.87-1.17h0v.1a4.32,4.32,0,0,1,.34,1.34,2.37,2.37,0,0,1-.6.23c-.17-.72-.71-1.3-.84-2l.3-.1c.13.53.52.94.67,1.47h0v-.1l-.4-1.54a2.67,2.67,0,0,1,.34-.1A6.69,6.69,0,0,0,33,40a11,11,0,0,1-.74-1.47A.38.38,0,0,0,32.46,38.38Z"/><path class="cls-4" d="M17.35,40.86l0-1h0a2.05,2.05,0,0,1-.84.57.79.79,0,0,0-.34-.17l0,0a12.48,12.48,0,0,1,1.17-.77l.47-.87a1.07,1.07,0,0,1,.3.17,1.32,1.32,0,0,0-.17.34,3.5,3.5,0,0,0-.27.47l.1,1.44h-.07A.69.69,0,0,0,17.35,40.86Z"/><path class="cls-4" d="M19.83,40.19a.61.61,0,0,0,0-.3c0-.11-.06-.13-.17-.17a.57.57,0,0,0-.37-.07c-.06.07-.1.07-.13.17a.29.29,0,0,0,0,.17c.18.16.37.28.57.44l.2.3a1.9,1.9,0,0,1-.07.54c-.1.07-.14.16-.27.2-.32.27-1-.1-1-.34a.59.59,0,0,1,0-.54,1.13,1.13,0,0,1,.3.13,1.16,1.16,0,0,1,.07.3c.2.11.59.27.64-.1-.3-.26-1.1-.69-.67-1.34.08-.13.26-.2.37-.3a1,1,0,0,1,1,.4,2.09,2.09,0,0,1,0,.57h-.07A.65.65,0,0,0,19.83,40.19Z"/><path class="cls-4" d="M30,41.19a11.23,11.23,0,0,0-.57-1.64c-.2.15-.52.1-.77.2s-.27.21-.4.3c-.16.67-.09,1.64.54,1.81a2.27,2.27,0,0,0,1.31-.2A1.49,1.49,0,0,0,30,41.19ZM29,41.53l-.23-.17c-.12-.17-.32-.81-.13-1s.37-.17.57-.3h.13l.4,1.37A1.73,1.73,0,0,1,29,41.53Z"/><path class="cls-4" d="M24.82,40.19c.09.8.61,1.45.74,2.21h-.4l-.54-1.61v0A8.83,8.83,0,0,0,24.15,42c0,.1,0,.32-.13.37h-.4V42.3a8.06,8.06,0,0,0,.64-1.47,3.67,3.67,0,0,1,.2-.64Z"/><path class="cls-4" d="M26.63,40.05s-.06,0-.13,0c-.19.18-.4.27-.5.54-.33.86.24,2,1.21,1.68S27.9,40,26.63,40.05Zm.77,1.54c-.11.11-.13.24-.3.3s-.27,0-.44,0-.21-.13-.27-.23c-.21-.34-.14-1.1.2-1.21l.13-.07a.46.46,0,0,1,.34.1C27.4,40.64,27.43,41.2,27.4,41.59Z"/><path class="cls-4" d="M20.46,40.56c.28,0,.45.12.74.13l-.07.4h0a1.77,1.77,0,0,0-.7-.17Z"/><path class="cls-4" d="M23.24,40.09a1.24,1.24,0,0,0-.23.5,1.07,1.07,0,0,1-.44-.07.51.51,0,0,1-.3-.07l0-.47h0v0a.29.29,0,0,1-.17,0h-.17L22,41.16a5.84,5.84,0,0,1,.2,1h0v0h.3c.11-.06.17-.39.23-.5a6.29,6.29,0,0,0,.74-1.61A.62.62,0,0,1,23.24,40.09Zm-.74,1.51v.07c-.13-.17-.1-.55-.17-.77a.29.29,0,0,1,.17,0,1,1,0,0,1,.3,0A1.41,1.41,0,0,1,22.51,41.59Z"/><path class="cls-4" d="M8.06,20.08l.37.07L8.2,21.32l.5.1v-.07c.14-.23,0-.65.2-.87,0,0,0,0,.1,0l.27.1a7.76,7.76,0,0,0-.2.94h.07c.22.14.62.05.84.2,0,0,0,.06,0,.13a1,1,0,0,0-.07.27h0c-.15-.1-.37-.05-.57-.1-.48-.12-1.1-.13-1.57-.3C7.86,21.15,8,20.61,8.06,20.08Z"/><path class="cls-4" d="M42.17,21.36l-.37,0a10.09,10.09,0,0,0-.23-1.27,1.72,1.72,0,0,0-.47.13,5.07,5.07,0,0,1,.23,1.17h-.07a.63.63,0,0,1-.3.07,3.73,3.73,0,0,0-.23-1.11s0,0-.1,0a1.15,1.15,0,0,1-.47.13l.23,1.27-.37.07v-.07l-.34-1.54h.07a1.86,1.86,0,0,1,.47-.13c.51-.17,1.06-.38,1.61-.5C41.88,20.18,42.15,20.7,42.17,21.36Z"/><path class="cls-4" d="M39.23,18.81c0-.16-.08-.21-.1-.37a7.53,7.53,0,0,0,1.37-1h0a8.92,8.92,0,0,1-1.51.7.56.56,0,0,0-.13-.27c0-.06,0,0,0-.07a2.82,2.82,0,0,1,.47-.23,6.6,6.6,0,0,1,1.51-.77c.06.24.2.43.27.67-.42.24-.77.71-1.24.87v0c.51-.05,1-.22,1.51-.23a5,5,0,0,1,.2.7,6.35,6.35,0,0,0-1.11.4c-.33.14-.67.19-1,.34v-.07a.6.6,0,0,1-.1-.3,10.09,10.09,0,0,1,1.51-.6v0h-.17Z"/><path class="cls-4" d="M8.77,19.48a13.23,13.23,0,0,0,1.61.54l.1-.3c-.1-.24-.63-.22-.84-.37a.42.42,0,0,1,.1-.3c.16-.4.78-.18,1.07-.37.09-.05.1-.29.17-.37v0a2,2,0,0,0-1.07.2c-.12-.08,0-.27-.1-.4a.69.69,0,0,0-.4-.3c-.12-.09-.27-.05-.44,0a2.36,2.36,0,0,0-.54.94,2.09,2.09,0,0,1-.17.57C8.32,19.45,8.57,19.41,8.77,19.48Zm.3-1.31a.41.41,0,0,1,.4.1,6.22,6.22,0,0,1-.2.94A5.07,5.07,0,0,1,8.73,19,7.31,7.31,0,0,1,9.07,18.17Z"/><path class="cls-4" d="M9.17,16.9a4.48,4.48,0,0,1,.77-1.47c.08.1.21.12.27.23a2.76,2.76,0,0,0-.5,1h0s0,0,0,0a.64.64,0,0,0,.4.2,3.11,3.11,0,0,1,.5-.94c.1.09.24.11.3.23a2.23,2.23,0,0,0-.47.94c.17,0,.41.25.54.2.18-.2.34-.87.6-.94.08.1.18.11.23.23-.2.22-.5,1.17-.74,1.24a3.05,3.05,0,0,0-.67-.34A4.63,4.63,0,0,0,9.17,16.9Z"/><path class="cls-4" d="M39.06,16.9c.32-.22.71-.22.94-.54a1.05,1.05,0,0,0-.47-1.57C38.19,14.41,37,16.95,39.06,16.9Zm-.7-1.11c.18-.2.74-.94,1.17-.54.26.09.3.41.27.7a2.49,2.49,0,0,1-.34.37c-.14.09-.33.1-.47.2l-.34,0a1.78,1.78,0,0,0-.27-.23A2.09,2.09,0,0,1,38.35,15.79Z"/><path class="cls-4" d="M12.15,16.06l-1.88-1.24a11.5,11.5,0,0,1,.9-1.27h0v0a.63.63,0,0,1,.27.23,3,3,0,0,0-.67.9,1.23,1.23,0,0,1,.34.23l.07,0a2.73,2.73,0,0,0,.57-.77l.07,0a.58.58,0,0,1,.27.2,2.85,2.85,0,0,0-.6.84,1.17,1.17,0,0,1,.47.34h0v0a4.71,4.71,0,0,0,.64-.84h.07c.08.11.18.13.23.27A4,4,0,0,0,12.15,16.06Z"/><path class="cls-4" d="M36.55,14.35c.3-.11.46-.46.74-.6a1,1,0,0,0,.2.23,3.77,3.77,0,0,1-.3,1.11c.1.1.15.22.27.3.1-.37.37-.61.37-1.07a1.16,1.16,0,0,0,.6.1c.05-.05.1-.05.17-.1s.17-.23.27-.34c0-.76-.55-.93-.84-1.41-.22.08-.3.31-.47.44a9.5,9.5,0,0,0-.9.84c-.09.09-.2.13-.27.23h0v0A.64.64,0,0,1,36.55,14.35ZM38,13.15v0h0a2.26,2.26,0,0,0,.47.57.46.46,0,0,1-.13.37h-.23c-.15-.16-.39-.32-.47-.54h0A.77.77,0,0,1,38,13.15Z"/><path class="cls-4" d="M35.94,13.41l.44-.13a1.48,1.48,0,0,0,.8-1.41c-.26-.27-.52-.71-.9-.84l-.07,0c-.2.31-.49.55-.7.84a4.24,4.24,0,0,1-.67.84v.07C35.23,13,35.39,13.31,35.94,13.41Zm.34-1.88v0h0a6.3,6.3,0,0,0,.5.54c0,.6-.43.74-.77,1-.37,0-.47-.25-.7-.4A6.25,6.25,0,0,1,36.28,11.54Z"/><path class="cls-4" d="M12.92,12.71c.4.3.65.8,1.07,1.07a3.26,3.26,0,0,1,.7-.64l.2-.3a.71.71,0,0,0-.44-.77v0h-.34c.12-.34-.11-.49-.23-.67-.78-.18-1,.48-1.51.8C12.47,12.41,12.74,12.57,12.92,12.71Zm1.17-.34c.3,0,.39.07.44.3-.18.2-.42.39-.57.6-.16-.11-.24-.29-.4-.4C13.7,12.67,13.94,12.57,14.1,12.38Zm-.57-.67a.78.78,0,0,1,.27.07c0,.06,0,0,0,.07,0,.43-.33.48-.5.74-.18-.06-.25-.24-.4-.34A3.47,3.47,0,0,1,13.53,11.7Z"/><path class="cls-4" d="M34.33,12.34c-.16-.07-.29-.14-.3-.37a4.66,4.66,0,0,0,.17-1.44h0v.07c-.29.24-.49,1-.8,1.14a.8.8,0,0,0-.23-.17,12.23,12.23,0,0,1,.9-1.44c.1-.16.12-.39.34-.44.17.16.28.11.27.47a12.26,12.26,0,0,0-.17,1.37h0a7,7,0,0,1,.87-1.21c.09.09.21.14.3.23h0C35.32,11.22,34.71,11.72,34.33,12.34Z"/><path class="cls-4" d="M16,12.14c-.82,0-1.75-.82-1.41-1.64.18-.42,1.24-.9,1.47-.23a.64.64,0,0,0-.23.2,1.39,1.39,0,0,0-.5-.13c-.06.06-.13.05-.2.1s-.13.19-.2.27a.93.93,0,0,0,1,1.07c.09-.09.23-.13.3-.23s0-.14.1-.2a.4.4,0,0,0-.2-.27c-.07.07-.31.23-.37.2a1.12,1.12,0,0,1-.2-.3c.28-.09.45-.32.74-.4.09.34.41.48.44.87-.13.14-.18.39-.34.5S16.09,12,16,12.14Z"/><path class="cls-4" d="M17.48,11.27c-.07,0-.06,0-.1,0a3.83,3.83,0,0,1-.37-.67,5.37,5.37,0,0,1-.7-1.24c.23-.06.38-.2.6-.27.16.46.71.71.87,1.17h0v-.1a4.32,4.32,0,0,1-.34-1.34,2.37,2.37,0,0,1,.6-.23c.17.72.71,1.3.84,2l-.3.1c-.13-.53-.52-.94-.67-1.47h0v.1l.4,1.54A2.67,2.67,0,0,1,18,11a6.69,6.69,0,0,0-1-1.27,11,11,0,0,1,.74,1.47A.38.38,0,0,0,17.48,11.27Z"/><path class="cls-4" d="M32.59,8.79l0,1h0a2.05,2.05,0,0,1,.84-.57.79.79,0,0,0,.34.17l0,0a12.48,12.48,0,0,1-1.17.77l-.47.87a1.07,1.07,0,0,1-.3-.17,1.32,1.32,0,0,0,.17-.34,3.5,3.5,0,0,0,.27-.47l-.1-1.44h.07A.69.69,0,0,0,32.59,8.79Z"/><path class="cls-4" d="M30.11,9.46a.61.61,0,0,0,0,.3c0,.11.06.13.17.17a.57.57,0,0,0,.37.07c.06-.07.1-.07.13-.17a.29.29,0,0,0,0-.17c-.18-.16-.37-.28-.57-.44l-.2-.3a1.9,1.9,0,0,1,.07-.54c.1-.07.14-.16.27-.2.32-.27,1,.1,1,.34a.59.59,0,0,1,0,.54,1.13,1.13,0,0,1-.3-.13,1.16,1.16,0,0,1-.07-.3c-.2-.11-.59-.27-.64.1.3.26,1.1.69.67,1.34-.08.13-.26.2-.37.3a1,1,0,0,1-1-.4,2.09,2.09,0,0,1,0-.57h.07A.65.65,0,0,0,30.11,9.46Z"/><path class="cls-4" d="M19.89,8.45a11.23,11.23,0,0,0,.57,1.64c.2-.15.52-.1.77-.2s.27-.21.4-.3c.16-.67.09-1.64-.54-1.81a2.27,2.27,0,0,0-1.31.2A1.49,1.49,0,0,0,19.89,8.45ZM21,8.12l.23.17c.12.17.32.81.13,1s-.37.17-.57.3h-.13l-.4-1.37A1.73,1.73,0,0,1,21,8.12Z"/><path class="cls-4" d="M25.12,9.46c-.09-.8-.61-1.45-.74-2.21h.4l.54,1.61v0a8.83,8.83,0,0,0,.47-1.17c0-.1,0-.32.13-.37h.4v.07a8.06,8.06,0,0,0-.64,1.47,3.67,3.67,0,0,1-.2.64Z"/><path class="cls-4" d="M23.31,9.59s.06,0,.13,0c.19-.18.4-.27.5-.54.33-.86-.24-2-1.21-1.68S22,9.63,23.31,9.59Zm-.77-1.54c.11-.11.13-.24.3-.3s.27,0,.44,0,.21.13.27.23c.21.34.14,1.1-.2,1.21l-.13.07a.46.46,0,0,1-.34-.1C22.53,9,22.51,8.45,22.54,8.05Z"/><path class="cls-4" d="M29.48,9.09C29.2,9.07,29,9,28.74,9l.07-.4h0a1.77,1.77,0,0,0,.7.17Z"/><path class="cls-4" d="M26.69,9.56a1.24,1.24,0,0,0,.23-.5,1.07,1.07,0,0,1,.44.07.51.51,0,0,1,.3.07l0,.47h0v0a.29.29,0,0,1,.17,0h.17L27.9,8.49a5.84,5.84,0,0,1-.2-1h0v0h-.3c-.11.06-.17.39-.23.5a6.29,6.29,0,0,0-.74,1.61A.62.62,0,0,1,26.69,9.56Zm.74-1.51V8c.13.17.1.55.17.77a.29.29,0,0,1-.17,0,1,1,0,0,1-.3,0A1.41,1.41,0,0,1,27.43,8.05Z"/><path class="cls-4" d="M16.86,15.78V13.27h1.55v.42H17.32v.59h.94v.42h-.94v1.07Z"/><path class="cls-4" d="M18.79,15.78V13.27h1a1.49,1.49,0,0,1,.53.07.54.54,0,0,1,.26.24.78.78,0,0,1,.1.4.72.72,0,0,1-.15.47.69.69,0,0,1-.45.23,1.09,1.09,0,0,1,.24.21,2.88,2.88,0,0,1,.26.41l.28.49h-.55l-.33-.55a3.55,3.55,0,0,0-.24-.37.35.35,0,0,0-.14-.1.68.68,0,0,0-.23,0h-.09v1Zm.46-1.45h.34a1.58,1.58,0,0,0,.41,0,.25.25,0,0,0,.13-.11.35.35,0,0,0,0-.19.32.32,0,0,0-.06-.2.27.27,0,0,0-.17-.1h-.69Z"/><path class="cls-4" d="M21.07,15.78V13.27h1.68v.42H21.52v.56h1.14v.42H21.52v.68h1.26v.42Z"/><path class="cls-4" d="M23.18,15.78V13.27h1.68v.42H23.63v.56h1.14v.42H23.63v.68H24.9v.42Z"/><path class="cls-4" d="M26.16,13.27h.9a2.36,2.36,0,0,1,.4,0,.56.56,0,0,1,.24.1.62.62,0,0,1,.17.21.62.62,0,0,1,.07.29.63.63,0,0,1-.09.32.55.55,0,0,1-.23.22.59.59,0,0,1,.32.23.65.65,0,0,1,.11.38.81.81,0,0,1-.07.33.66.66,0,0,1-.2.26.61.61,0,0,1-.31.12l-.55,0h-.77Zm.46.42v.58h.63a.29.29,0,0,0,.18-.09.28.28,0,0,0,.07-.2.29.29,0,0,0-.06-.19.25.25,0,0,0-.17-.09h-.65Zm0,1v.67H27l.31,0a.28.28,0,0,0,.17-.1.33.33,0,0,0,.06-.21.35.35,0,0,0,0-.19.28.28,0,0,0-.14-.11,1.4,1.4,0,0,0-.4,0Z"/><path class="cls-4" d="M29.49,14.86v-.42h1v1a1.22,1.22,0,0,1-.42.27,1.38,1.38,0,0,1-.55.12,1.14,1.14,0,0,1-.62-.17,1,1,0,0,1-.4-.47,1.67,1.67,0,0,1-.13-.67,1.57,1.57,0,0,1,.15-.7,1.05,1.05,0,0,1,.43-.47,1.07,1.07,0,0,1,.54-.12,1,1,0,0,1,.66.2.9.9,0,0,1,.3.54l-.45.09a.54.54,0,0,0-.18-.29.51.51,0,0,0-.33-.11.59.59,0,0,0-.48.21,1,1,0,0,0-.18.62,1.06,1.06,0,0,0,.18.67.57.57,0,0,0,.47.22.72.72,0,0,0,.29-.06,1,1,0,0,0,.25-.15v-.32Z"/><path class="cls-4" d="M30.89,15.78V13.27h.68L32,15l.41-1.71h.68v2.51h-.42v-2l-.45,2h-.44l-.45-2v2Z"/><path class="cls-4" d="M16.05,34.41h.54a1,1,0,0,1,.28,0,.49.49,0,0,1,.22.15.73.73,0,0,1,.14.26,1.33,1.33,0,0,1,0,.39,1.18,1.18,0,0,1,0,.35.74.74,0,0,1-.16.29.51.51,0,0,1-.21.13.81.81,0,0,1-.26,0h-.56Zm.3.28v1.08h.22l.18,0a.27.27,0,0,0,.12-.07.36.36,0,0,0,.08-.16,1.18,1.18,0,0,0,0-.3,1.08,1.08,0,0,0,0-.29.38.38,0,0,0-.08-.16.27.27,0,0,0-.14-.08l-.24,0Z"/><path class="cls-4" d="M17.45,35.24a1.14,1.14,0,0,1,.07-.42.78.78,0,0,1,.14-.22.58.58,0,0,1,.19-.15.74.74,0,0,1,.32-.06.65.65,0,0,1,.52.22,1.09,1.09,0,0,1,0,1.24.72.72,0,0,1-1,0A.9.9,0,0,1,17.45,35.24Zm.31,0a.66.66,0,0,0,.12.42.37.37,0,0,0,.58,0,.67.67,0,0,0,.11-.43.66.66,0,0,0-.11-.42.38.38,0,0,0-.59,0A.66.66,0,0,0,17.75,35.23Z"/><path class="cls-4" d="M19.41,36l-.53-1.63h.32l.37,1.21.36-1.21h.31L19.72,36Z"/><path class="cls-4" d="M21.62,36H21.3l-.13-.37h-.59l-.12.37h-.31l.57-1.63H21Zm-.55-.65-.2-.61-.2.61Z"/><path class="cls-4" d="M21.63,35.41v-.31h.55v.31Z"/><path class="cls-4" d="M22.34,35.51l.29,0a.41.41,0,0,0,.11.24.3.3,0,0,0,.22.08.31.31,0,0,0,.22-.07.21.21,0,0,0,.07-.16.16.16,0,0,0,0-.1.24.24,0,0,0-.11-.07l-.24-.07a.77.77,0,0,1-.33-.16.45.45,0,0,1-.14-.33.45.45,0,0,1,.06-.23.41.41,0,0,1,.18-.17.67.67,0,0,1,.29-.06.58.58,0,0,1,.42.13.5.5,0,0,1,.15.36h-.3a.29.29,0,0,0-.08-.18.28.28,0,0,0-.19-.06.31.31,0,0,0-.2.06.12.12,0,0,0,0,.1.13.13,0,0,0,0,.1A.73.73,0,0,0,23,35a1.34,1.34,0,0,1,.32.12.43.43,0,0,1,.16.17.53.53,0,0,1,.06.26.52.52,0,0,1-.07.26.43.43,0,0,1-.2.18.76.76,0,0,1-.32.06.59.59,0,0,1-.43-.14A.65.65,0,0,1,22.34,35.51Z"/><path class="cls-4" d="M24.11,36v-.69l-.54-.95h.35l.35.65.34-.65h.34l-.54.95V36Z"/><path class="cls-4" d="M25.06,36V34.41h.29l.6,1.09V34.41h.28V36h-.3L25.33,35V36Z"/><path class="cls-4" d="M26.53,34.41h.54a1,1,0,0,1,.28,0,.49.49,0,0,1,.22.15.73.73,0,0,1,.14.26,1.33,1.33,0,0,1,0,.39,1.18,1.18,0,0,1,0,.35.74.74,0,0,1-.16.29.51.51,0,0,1-.21.13.81.81,0,0,1-.26,0h-.56Zm.3.28v1.08h.22l.18,0a.27.27,0,0,0,.12-.07.36.36,0,0,0,.08-.16,1.18,1.18,0,0,0,0-.3,1.08,1.08,0,0,0,0-.29.38.38,0,0,0-.08-.16.27.27,0,0,0-.14-.08l-.24,0Z"/><path class="cls-4" d="M28,36V34.41h.62a1,1,0,0,1,.34,0,.35.35,0,0,1,.17.16.51.51,0,0,1,.06.26.47.47,0,0,1-.1.3.45.45,0,0,1-.29.15.71.71,0,0,1,.16.14,1.87,1.87,0,0,1,.17.27l.18.32H29l-.21-.36a2.31,2.31,0,0,0-.16-.24.23.23,0,0,0-.09-.07l-.15,0h-.06V36Zm.3-.94h.22a1,1,0,0,0,.27,0,.16.16,0,0,0,.08-.07.23.23,0,0,0,0-.12.21.21,0,0,0,0-.13.18.18,0,0,0-.11-.06h-.45Z"/><path class="cls-4" d="M29.38,35.24a1.14,1.14,0,0,1,.07-.42.78.78,0,0,1,.14-.22.58.58,0,0,1,.19-.15.74.74,0,0,1,.32-.06.65.65,0,0,1,.52.22,1.09,1.09,0,0,1,0,1.24.72.72,0,0,1-1,0A.9.9,0,0,1,29.38,35.24Zm.31,0a.66.66,0,0,0,.12.42.37.37,0,0,0,.58,0,.67.67,0,0,0,.11-.43.66.66,0,0,0-.11-.42.38.38,0,0,0-.59,0A.66.66,0,0,0,29.69,35.23Z"/><path class="cls-4" d="M31,36V34.41h.43l.26,1.11L32,34.41h.44V36h-.27V34.76L31.86,36h-.28l-.28-1.29V36Z"/><path class="cls-4" d="M32.77,36V34.41h1.09v.28h-.79V35h.74v.28h-.74v.44h.82V36Z"/><path class="cls-4" d="M34,25.39l-4.68-1.75-.24-.09-.18.18-1.2,1.2-.44.44.59.22,3.35,1.25L25.3,29l-5.9-2.2,3.35-1.25.59-.22-.44-.44-1.2-1.2-.18-.18-.24.09-4.68,1.75-.26.1v4.85l.26.1,8.58,3.22.14.05.14-.05L34,30.43l.26-.1V25.49Zm.06.38V30.2l-.13,0-8.58,3.22-.07,0-.07,0-8.58-3.22-.13,0V25.63l.13,0,4.68-1.75.12,0,.09.09,1.2,1.2.22.22-.29.11-3.85,1.44,6.48,2.42,6.48-2.42-3.85-1.44-.29-.11.22-.22,1.2-1.2.09-.09.12,0L34,25.58l.13,0Z"/><path class="cls-4" d="M25,26l.28.28.28-.28,4.29-4.29.69-.69H26.78V16.78H23.83v4.29H20l.69.69Zm-4-4.77h3V17h2.55v4.29h3.5l-.34.34-4.29,4.29-.14.14-.14-.14-4.29-4.29-.34-.34Z"/><path class="cls-4" d="M25.3,25.78l4.29-4.29H26.38V17.2H24.23v4.29H21ZM29.2,24,28,25.23l4.36,1.62L25.3,29.48l-7.05-2.63,4.36-1.62L21.4,24l-4.68,1.75v4.29l8.58,3.22,8.58-3.22V25.78Z"/><path class="cls-4" d="M96.05,16.28l-.31.4a1.82,1.82,0,0,1-.44-.31,1.1,1.1,0,0,1-.35.22,1.23,1.23,0,0,1-.44.07,1,1,0,0,1-.75-.28.73.73,0,0,1-.2-.5.76.76,0,0,1,.15-.46,1.26,1.26,0,0,1,.46-.36,1.46,1.46,0,0,1-.21-.31.65.65,0,0,1-.07-.28.53.53,0,0,1,.2-.41.82.82,0,0,1,.56-.17.78.78,0,0,1,.54.18.56.56,0,0,1,.2.43.55.55,0,0,1-.1.31,1.31,1.31,0,0,1-.39.33l.37.49a1.25,1.25,0,0,0,.11-.31l.47.11a2.87,2.87,0,0,1-.12.36,1,1,0,0,1-.11.19l.22.18Zm-1.6-.9a.7.7,0,0,0-.27.22.45.45,0,0,0-.09.26.36.36,0,0,0,.11.27.4.4,0,0,0,.29.11.59.59,0,0,0,.23,0A1,1,0,0,0,95,16Zm.2-.56.14-.11a.32.32,0,0,0,.15-.24.22.22,0,0,0-.07-.17.33.33,0,0,0-.39,0,.18.18,0,0,0-.07.14.39.39,0,0,0,.12.23Z"/><path class="cls-4" d="M69,15.59l.72.23a1.61,1.61,0,0,1-.55.89A1.73,1.73,0,0,1,67,16.5a1.91,1.91,0,0,1-.47-1.37A2,2,0,0,1,67,13.71a1.63,1.63,0,0,1,1.25-.51,1.53,1.53,0,0,1,1.1.4,1.45,1.45,0,0,1,.38.68l-.73.18a.76.76,0,0,0-.78-.62.84.84,0,0,0-.66.29,1.44,1.44,0,0,0-.25.95,1.54,1.54,0,0,0,.25,1,.81.81,0,0,0,.65.3.74.74,0,0,0,.51-.19A1.09,1.09,0,0,0,69,15.59Z"/><path class="cls-4" d="M70.81,16.94V13.27h.74v1.45H73V13.27h.74v3.67H73V15.34H71.55v1.61Z"/><path class="cls-4" d="M78.25,16.94h-.81l-.32-.83H75.65l-.3.83h-.79L76,13.27h.79Zm-1.37-1.45-.51-1.36-.5,1.36Z"/><path class="cls-4" d="M79.05,16.94V13.27h1.56a2.68,2.68,0,0,1,.86.1.85.85,0,0,1,.43.35,1.06,1.06,0,0,1,.16.58,1,1,0,0,1-.24.68,1.17,1.17,0,0,1-.73.34,1.74,1.74,0,0,1,.4.31,4.19,4.19,0,0,1,.42.6l.45.72h-.89l-.54-.8a5.21,5.21,0,0,0-.39-.54.57.57,0,0,0-.22-.15,1.23,1.23,0,0,0-.37,0H79.8v1.53Zm.74-2.12h.55a2.84,2.84,0,0,0,.67,0,.4.4,0,0,0,.21-.16.48.48,0,0,0,.08-.28.44.44,0,0,0-.1-.3.46.46,0,0,0-.28-.14H79.8Z"/><path class="cls-4" d="M84.88,15.59V15h1.6v1.46a2,2,0,0,1-.68.4,2.46,2.46,0,0,1-.9.17,2,2,0,0,1-1-.24,1.54,1.54,0,0,1-.64-.69,2.23,2.23,0,0,1-.22-1,2.11,2.11,0,0,1,.24-1,1.62,1.62,0,0,1,.7-.68,1.9,1.9,0,0,1,.88-.18,1.76,1.76,0,0,1,1.07.29,1.3,1.3,0,0,1,.5.79l-.74.14a.78.78,0,0,0-.29-.43.88.88,0,0,0-.54-.16,1,1,0,0,0-.77.31,1.3,1.3,0,0,0-.29.91,1.44,1.44,0,0,0,.29,1,1,1,0,0,0,.76.33,1.28,1.28,0,0,0,.47-.09,1.6,1.6,0,0,0,.4-.22v-.47Z"/><path class="cls-4" d="M87.58,16.94V13.27h2.73v.62h-2v.81h1.85v.62H88.32v1h2.05v.62Z"/><path class="cls-4" d="M99.22,16.94V13.27h1.56a2.68,2.68,0,0,1,.86.1.85.85,0,0,1,.43.35,1.06,1.06,0,0,1,.16.58A1,1,0,0,1,102,15a1.17,1.17,0,0,1-.73.34,1.74,1.74,0,0,1,.4.31,4.19,4.19,0,0,1,.42.6l.45.72h-.89l-.54-.8a5.21,5.21,0,0,0-.39-.54.57.57,0,0,0-.22-.15,1.23,1.23,0,0,0-.37,0H100v1.53Zm.74-2.12h.55a2.84,2.84,0,0,0,.67,0,.4.4,0,0,0,.21-.16.48.48,0,0,0,.08-.28.44.44,0,0,0-.1-.3.46.46,0,0,0-.28-.14H100Z"/><path class="cls-4" d="M103.19,15.13a2.33,2.33,0,0,1,.17-.94,1.73,1.73,0,0,1,.34-.5,1.43,1.43,0,0,1,.48-.33,2,2,0,0,1,.79-.15,1.73,1.73,0,0,1,1.3.5,1.93,1.93,0,0,1,.49,1.4,1.92,1.92,0,0,1-.48,1.39A1.71,1.71,0,0,1,105,17a1.73,1.73,0,0,1-1.3-.5A1.9,1.9,0,0,1,103.19,15.13Zm.77,0a1.37,1.37,0,0,0,.29.95,1,1,0,0,0,1.46,0,1.4,1.4,0,0,0,.28-1,1.38,1.38,0,0,0-.28-.94,1,1,0,0,0-1.48,0A1.39,1.39,0,0,0,104,15.1Z"/><path class="cls-4" d="M108.71,16.94V15.4l-1.35-2.13h.87l.87,1.45.85-1.45h.86l-1.35,2.13v1.54Z"/><path class="cls-4" d="M114.9,16.94h-.81l-.32-.83H112.3l-.3.83h-.79l1.43-3.67h.79Zm-1.37-1.45L113,14.13l-.5,1.36Z"/><path class="cls-4" d="M115.73,16.94V13.3h.74v3h1.85v.62Z"/><path class="cls-4" d="M120.08,16.94V13.89H119v-.62h2.92v.62h-1.09v3.05Z"/><path class="cls-4" d="M123.77,16.94V15.4l-1.35-2.13h.87l.87,1.45.85-1.45h.86l-1.35,2.13v1.54Z"/><path class="cls-4" d="M128.49,16.94V13.27H131v.62h-1.78v.87h1.54v.62h-1.54v1.56Z"/><path class="cls-4" d="M132,16.94V13.27h1.56a2.68,2.68,0,0,1,.86.1.85.85,0,0,1,.43.35,1.06,1.06,0,0,1,.16.58,1,1,0,0,1-.24.68,1.17,1.17,0,0,1-.73.34,1.74,1.74,0,0,1,.4.31,4.19,4.19,0,0,1,.42.6l.45.72h-.89l-.54-.8a5.21,5.21,0,0,0-.39-.54.57.57,0,0,0-.22-.15,1.23,1.23,0,0,0-.37,0h-.15v1.53Zm.74-2.12h.55a2.84,2.84,0,0,0,.67,0,.4.4,0,0,0,.21-.16.48.48,0,0,0,.08-.28.44.44,0,0,0-.1-.3.46.46,0,0,0-.28-.14h-1.12Z"/><path class="cls-4" d="M136.15,16.94V13.27h2.73v.62h-2v.81h1.85v.62h-1.85v1h2.05v.62Z"/><path class="cls-4" d="M140,16.94V13.27h2.73v.62h-2v.81h1.85v.62h-1.85v1h2.05v.62Z"/><path class="cls-4" d="M145.67,13.27h1.47a4.25,4.25,0,0,1,.65,0,1,1,0,0,1,.38.15.94.94,0,0,1,.28.31.83.83,0,0,1,.11.43.87.87,0,0,1-.52.8,1,1,0,0,1,.52.33.88.88,0,0,1,.18.55,1.09,1.09,0,0,1-.12.49,1,1,0,0,1-.32.38,1.05,1.05,0,0,1-.5.17q-.19,0-.9,0h-1.25Zm.74.61v.85h1a.49.49,0,0,0,.3-.13.39.39,0,0,0,.11-.29.4.4,0,0,0-.09-.28.43.43,0,0,0-.28-.13h-1.06Zm0,1.46v1h.69a3.37,3.37,0,0,0,.51,0,.46.46,0,0,0,.27-.15.45.45,0,0,0,.1-.31.48.48,0,0,0-.08-.28.45.45,0,0,0-.23-.17,2.53,2.53,0,0,0-.66-.05Z"/><path class="cls-4" d="M151.5,15.59V15h1.6v1.46a2,2,0,0,1-.68.4,2.46,2.46,0,0,1-.9.17,2,2,0,0,1-1-.24,1.54,1.54,0,0,1-.64-.69,2.23,2.23,0,0,1-.22-1,2.11,2.11,0,0,1,.24-1,1.62,1.62,0,0,1,.7-.68,1.9,1.9,0,0,1,.88-.18,1.76,1.76,0,0,1,1.07.29,1.3,1.3,0,0,1,.5.79l-.74.14A.78.78,0,0,0,152,14a.88.88,0,0,0-.54-.16,1,1,0,0,0-.77.31,1.3,1.3,0,0,0-.29.91,1.44,1.44,0,0,0,.29,1,1,1,0,0,0,.76.33,1.28,1.28,0,0,0,.47-.09,1.6,1.6,0,0,0,.4-.22v-.47Z"/><path class="cls-4" d="M154.19,16.94V13.27h1.11l.67,2.51.66-2.51h1.11v3.67H157V14.05l-.73,2.89h-.72l-.73-2.89v2.89Z"/><rect class="cls-4" x="106.02" y="28.84" width="2.97" height="1.38"/><path class="cls-4" d="M71.24,33.63A3,3,0,0,0,72.42,33a3.79,3.79,0,0,0,.9-1.51,5.78,5.78,0,0,0,.26-1.84,6.51,6.51,0,0,0-.28-2,3.75,3.75,0,0,0-.8-1.38,2.78,2.78,0,0,0-1.25-.77,6.13,6.13,0,0,0-1.62-.16H66.56v8.56h3.17A5.18,5.18,0,0,0,71.24,33.63Zm-3.08-1a.17.17,0,0,1-.17-.16V26.58a.17.17,0,0,1,.17-.16H69a8,8,0,0,1,1.49.09,1.85,1.85,0,0,1,.9.46,2.21,2.21,0,0,1,.55.93,5.47,5.47,0,0,1,.19,1.63,6.05,6.05,0,0,1-.19,1.68,2,2,0,0,1-.51.93,1.81,1.81,0,0,1-.79.41,4.86,4.86,0,0,1-1.11.09Z"/><path class="cls-4" d="M80.3,25.09a4.63,4.63,0,0,0-1.83.34,3.26,3.26,0,0,0-1.08.76,4.05,4.05,0,0,0-.79,1.17,5.59,5.59,0,0,0-.39,2.22,4.49,4.49,0,0,0,1.11,3.22,4.41,4.41,0,0,0,6,0,4.56,4.56,0,0,0,1.11-3.26,4.57,4.57,0,0,0-1.12-3.28A4,4,0,0,0,80.3,25.09Zm1.89,6.83a2.52,2.52,0,0,1-3.74,0,3.53,3.53,0,0,1-.73-2.4,3.56,3.56,0,0,1,.71-2.4,2.6,2.6,0,0,1,3.78,0,3.54,3.54,0,0,1,.7,2.39A3.6,3.6,0,0,1,82.18,31.92Z"/><path class="cls-4" d="M90.33,31.82h0a.17.17,0,0,1-.16-.11L88,25.24H86.42l3,8.56H91.1l3-8.56H92.61l-2.11,6.47A.17.17,0,0,1,90.33,31.82Z"/><path class="cls-4" d="M98.69,25.24l-3.3,8.56h1.52l.69-1.91a.17.17,0,0,1,.16-.11h3.51a.17.17,0,0,1,.16.11l.73,1.91h1.57l-3.39-8.56Zm2.15,5.3a.17.17,0,0,1-.14.07H98.3a.17.17,0,0,1-.14-.07.16.16,0,0,1,0-.15l1.19-3.3a.17.17,0,0,1,.16-.11h0a.17.17,0,0,1,.16.11l1.21,3.3A.16.16,0,0,1,100.84,30.55Z"/><path class="cls-4" d="M118.13,32.73a2.49,2.49,0,0,0,.39-1.35A2.53,2.53,0,0,0,118.2,30a2.33,2.33,0,0,0-.91-.84,8.4,8.4,0,0,0-1.87-.62,4.68,4.68,0,0,1-1.7-.63.85.85,0,0,1-.32-.66.81.81,0,0,1,.35-.68,2.18,2.18,0,0,1,1.31-.35,1.94,1.94,0,0,1,1.23.34,1.6,1.6,0,0,1,.52.94l1.46-.06a2.42,2.42,0,0,0-.81-1.68,3.54,3.54,0,0,0-2.38-.69,4.2,4.2,0,0,0-1.66.3,2.23,2.23,0,0,0-1,.84,2.19,2.19,0,0,0,.4,2.85,4.66,4.66,0,0,0,1.93.84c.74.19,1.22.32,1.43.39a1.61,1.61,0,0,1,.71.44,1,1,0,0,1,.22.64,1.26,1.26,0,0,1-.49,1,2.13,2.13,0,0,1-1.4.41,2.07,2.07,0,0,1-1.4-.45,2.2,2.2,0,0,1-.66-1.24l-1.4.14a3.18,3.18,0,0,0,1,2,3.63,3.63,0,0,0,2.45.74,4.78,4.78,0,0,0,1.84-.31A2.37,2.37,0,0,0,118.13,32.73Z"/><path class="cls-4" d="M125.06,33.81V30.24a.16.16,0,0,1,0-.09l3.07-4.91h-1.65l-2,3.43a.13.13,0,0,1-.15.08.17.17,0,0,1-.15-.08l-2-3.44h-1.68l3.06,4.9a.16.16,0,0,1,0,.09v3.58Z"/><path class="cls-4" d="M135.81,31.18a.17.17,0,0,1-.19-.07l-3.55-5.86h-1.46v8.56h1.31V28.17A.16.16,0,0,1,132,28a.17.17,0,0,1,.19.07l3.49,5.72h1.52V25.24h-1.31V31A.16.16,0,0,1,135.81,31.18Z"/><path class="cls-4" d="M146.74,26.18a2.78,2.78,0,0,0-1.25-.77,6.13,6.13,0,0,0-1.62-.16h-3.07v8.56H144a5.17,5.17,0,0,0,1.52-.18,3,3,0,0,0,1.18-.67,3.79,3.79,0,0,0,.9-1.51,5.78,5.78,0,0,0,.26-1.84,6.51,6.51,0,0,0-.28-2A3.74,3.74,0,0,0,146.74,26.18Zm-.6,5a2,2,0,0,1-.51.93,1.8,1.8,0,0,1-.79.41,4.87,4.87,0,0,1-1.11.09h-1.32a.17.17,0,0,1-.17-.16V26.58a.17.17,0,0,1,.17-.16h.8a8,8,0,0,1,1.49.09,1.85,1.85,0,0,1,.9.46,2.21,2.21,0,0,1,.55.93,5.55,5.55,0,0,1,.19,1.63A6.06,6.06,0,0,1,146.13,31.21Z"/><path class="cls-4" d="M152.78,30.09a3,3,0,0,1,1,.11,1.53,1.53,0,0,1,.6.41,12.47,12.47,0,0,1,1,1.33l1.23,1.86h1.73l-.92-1.49a10.06,10.06,0,0,0-1-1.42,4,4,0,0,0-.91-.72.16.16,0,0,1-.08-.17.17.17,0,0,1,.14-.13,2.62,2.62,0,0,0,1.64-.77,2.24,2.24,0,0,0,.54-1.54,2.44,2.44,0,0,0-.36-1.32,1.84,1.84,0,0,0-.94-.78,6.21,6.21,0,0,0-2-.23h-3.57v8.56h1.44V30.26a.17.17,0,0,1,.17-.16Zm-.53-1.26V26.58a.17.17,0,0,1,.17-.16h1.38a12.39,12.39,0,0,1,1.32,0,1.25,1.25,0,0,1,.77.41,1.24,1.24,0,0,1,.28.83,1.33,1.33,0,0,1-.21.76,1.12,1.12,0,0,1-.58.44,5.85,5.85,0,0,1-1.65.12h-1.31A.17.17,0,0,1,152.25,28.84Z"/><path class="cls-4" d="M164.55,25.09a4.62,4.62,0,0,0-1.83.34,3.26,3.26,0,0,0-1.08.76,4,4,0,0,0-.79,1.17,5.59,5.59,0,0,0-.39,2.22,4.49,4.49,0,0,0,1.11,3.22,4.41,4.41,0,0,0,6,0,4.56,4.56,0,0,0,1.11-3.26,4.57,4.57,0,0,0-1.12-3.28A4,4,0,0,0,164.55,25.09Zm1.89,6.83a2.52,2.52,0,0,1-3.74,0,3.53,3.53,0,0,1-.73-2.4,3.56,3.56,0,0,1,.71-2.4,2.6,2.6,0,0,1,3.78,0,3.54,3.54,0,0,1,.7,2.39A3.59,3.59,0,0,1,166.43,31.92Z"/><path class="cls-4" d="M177.94,26.81a.17.17,0,0,1,.15.16v6.84h1.31V25.24H177l-1.54,5.94a.17.17,0,0,1-.16.12h0a.17.17,0,0,1-.16-.12l-1.56-5.94h-2.36v8.56h1.31V27a.17.17,0,0,1,.15-.16.17.17,0,0,1,.18.12l1.71,6.87H176l1.71-6.87A.17.17,0,0,1,177.94,26.81Z"/><path class="cls-4" d="M182.65,33.81H189V32.64h-4.74a.17.17,0,0,1-.17-.16V30.05a.17.17,0,0,1,.17-.16h4.24V28.72h-4.24a.17.17,0,0,1-.17-.16v-2a.17.17,0,0,1,.17-.16h4.57V25.24h-6.18Z"/></g></g></svg>