<svg xmlns="http://www.w3.org/2000/svg" viewBox="0 0 40.21 40.21"><defs><style>.cls-1{fill:#e3558b;}.cls-2{opacity:0.3;}.cls-3,.cls-4{fill:#fff;}.cls-4{opacity:0.1;}</style></defs><title>アセット 33</title><g id="レイヤー_2" data-name="レイヤー 2"><g id="レイヤー_1-2" data-name="レイヤー 1"><circle class="cls-1" cx="20.1" cy="20.1" r="20.1"/><g class="cls-2"><path class="cls-3" d="M20.1,0a20.1,20.1,0,1,0,20.1,20.1A20.1,20.1,0,0,0,20.1,0Zm0,33.51a13.4,13.4,0,1,1,13.4-13.4A13.4,13.4,0,0,1,20.1,33.51Z"/></g><circle class="cls-3" cx="3.43" cy="20.11" r="0.61"/><circle class="cls-3" cx="36.77" cy="20.11" r="0.61"/><path class="cls-3" d="M37,24.86l-.37-.07.23-1.17-.5-.1v.07c-.14.23,0,.65-.2.87,0,0,0,0-.1,0l-.27-.1a7.76,7.76,0,0,0,.2-.94h-.07c-.22-.14-.62-.05-.84-.2,0,0,0-.06,0-.13a1,1,0,0,0,.07-.27h0c.15.1.37.05.57.1.48.12,1.1.13,1.57.3C37.21,23.8,37.08,24.34,37,24.86Z"/><path class="cls-3" d="M2.9,23.59l.37,0a10.09,10.09,0,0,0,.23,1.27A1.72,1.72,0,0,0,4,24.7a5.07,5.07,0,0,1-.23-1.17H3.8a.63.63,0,0,1,.3-.07,3.73,3.73,0,0,0,.23,1.11s0,0,.1,0a1.15,1.15,0,0,1,.47-.13l-.23-1.27L5,23.12v.07l.34,1.54H5.31a1.86,1.86,0,0,1-.47.13c-.51.17-1.06.38-1.61.5C3.2,24.76,2.93,24.24,2.9,23.59Z"/><path class="cls-3" d="M5.85,26.14c0,.16.08.21.1.37a7.53,7.53,0,0,0-1.37,1h0a8.92,8.92,0,0,1,1.51-.7.56.56,0,0,0,.13.27c0,.06,0,0,0,.07a2.82,2.82,0,0,1-.47.23,6.6,6.6,0,0,1-1.51.77c-.06-.24-.2-.43-.27-.67.42-.24.77-.71,1.24-.87v0c-.51.05-1,.22-1.51.23a5,5,0,0,1-.2-.7,6.35,6.35,0,0,0,1.11-.4c.33-.14.67-.19,1-.34v.07a.6.6,0,0,1,.1.3,10.09,10.09,0,0,1-1.51.6v0h.17Z"/><path class="cls-3" d="M36.31,25.47a13.23,13.23,0,0,0-1.61-.54l-.1.3c.1.24.63.22.84.37a.42.42,0,0,1-.1.3c-.16.4-.78.18-1.07.37-.09.05-.1.29-.17.37v0a2,2,0,0,0,1.07-.2c.12.08,0,.27.1.4a.69.69,0,0,0,.4.3c.12.09.27.05.44,0a2.36,2.36,0,0,0,.54-.94,2.09,2.09,0,0,1,.17-.57C36.75,25.49,36.51,25.53,36.31,25.47ZM36,26.77a.41.41,0,0,1-.4-.1,6.22,6.22,0,0,1,.2-.94,5.07,5.07,0,0,1,.54.17A7.31,7.31,0,0,1,36,26.77Z"/><path class="cls-3" d="M35.9,28a4.48,4.48,0,0,1-.77,1.47c-.08-.1-.21-.12-.27-.23a2.76,2.76,0,0,0,.5-1h0s0,0,0,0a.64.64,0,0,0-.4-.2,3.11,3.11,0,0,1-.5.94c-.1-.09-.24-.11-.3-.23a2.23,2.23,0,0,0,.47-.94c-.17,0-.41-.25-.54-.2-.18.2-.34.87-.6.94-.08-.1-.18-.11-.23-.23.2-.22.5-1.17.74-1.24a3.05,3.05,0,0,0,.67.34A4.63,4.63,0,0,0,35.9,28Z"/><path class="cls-3" d="M6,28c-.32.22-.71.22-.94.54a1.05,1.05,0,0,0,.47,1.57C6.88,30.54,8,28,6,28Zm.7,1.11c-.18.2-.74.94-1.17.54-.26-.09-.3-.41-.27-.7a2.49,2.49,0,0,1,.34-.37c.14-.09.33-.1.47-.2l.34,0a1.78,1.78,0,0,0,.27.23A2.09,2.09,0,0,1,6.72,29.15Z"/><path class="cls-3" d="M32.92,28.88l1.88,1.24a11.5,11.5,0,0,1-.9,1.27h0v0a.63.63,0,0,1-.27-.23,3,3,0,0,0,.67-.9,1.23,1.23,0,0,1-.34-.23l-.07,0a2.73,2.73,0,0,0-.57.77l-.07,0a.58.58,0,0,1-.27-.2,2.85,2.85,0,0,0,.6-.84,1.17,1.17,0,0,1-.47-.34h0v0a4.71,4.71,0,0,0-.64.84h-.07c-.08-.11-.18-.13-.23-.27A4,4,0,0,0,32.92,28.88Z"/><path class="cls-3" d="M8.53,30.59c-.3.11-.46.46-.74.6a1,1,0,0,0-.2-.23,3.77,3.77,0,0,1,.3-1.11c-.1-.1-.15-.22-.27-.3-.1.37-.37.61-.37,1.07a1.16,1.16,0,0,0-.6-.1c-.05.05-.1.05-.17.1s-.17.23-.27.34c0,.76.55.93.84,1.41.22-.08.3-.31.47-.44a9.5,9.5,0,0,0,.9-.84c.09-.09.2-.13.27-.23h0v0A.64.64,0,0,1,8.53,30.59ZM7.12,31.8v0h0a2.26,2.26,0,0,0-.47-.57.46.46,0,0,1,.13-.37H7c.15.16.39.32.47.54h0A.77.77,0,0,1,7.12,31.8Z"/><path class="cls-3" d="M9.13,31.53l-.44.13a1.48,1.48,0,0,0-.8,1.41c.26.27.52.71.9.84l.07,0c.2-.31.49-.55.7-.84a4.24,4.24,0,0,1,.67-.84V32.2C9.85,32,9.68,31.63,9.13,31.53ZM8.8,33.41v0h0a6.3,6.3,0,0,0-.5-.54c0-.6.43-.74.77-1,.37,0,.47.25.7.4A6.25,6.25,0,0,1,8.8,33.41Z"/><path class="cls-3" d="M32.15,32.23c-.4-.3-.65-.8-1.07-1.07a3.26,3.26,0,0,1-.7.64l-.2.3a.71.71,0,0,0,.44.77v0h.34c-.12.34.11.49.23.67.78.18,1-.48,1.51-.8C32.6,32.54,32.34,32.37,32.15,32.23ZM31,32.57c-.3,0-.39-.07-.44-.3.18-.2.42-.39.57-.6.16.11.24.29.4.4C31.37,32.28,31.13,32.38,31,32.57Zm.57.67a.78.78,0,0,1-.27-.07c0-.06,0,0,0-.07,0-.43.33-.48.5-.74.18.06.25.24.4.34A3.47,3.47,0,0,1,31.55,33.24Z"/><path class="cls-3" d="M10.74,32.6c.16.07.29.14.3.37a4.66,4.66,0,0,0-.17,1.44h0v-.07c.29-.24.49-1,.8-1.14a.8.8,0,0,0,.23.17,12.23,12.23,0,0,1-.9,1.44c-.1.16-.12.39-.34.44-.17-.16-.28-.11-.27-.47a12.26,12.26,0,0,0,.17-1.37h0a7,7,0,0,1-.87,1.21c-.09-.09-.21-.14-.3-.23h0C9.76,33.73,10.36,33.22,10.74,32.6Z"/><path class="cls-3" d="M29.1,32.8c.82,0,1.75.82,1.41,1.64-.18.42-1.24.9-1.47.23a.64.64,0,0,0,.23-.2,1.39,1.39,0,0,0,.5.13c.06-.06.13-.05.2-.1s.13-.19.2-.27a.93.93,0,0,0-1-1.07c-.09.09-.23.13-.3.23s0,.14-.1.2a.4.4,0,0,0,.2.27c.07-.07.31-.23.37-.2a1.12,1.12,0,0,1,.2.3c-.28.09-.45.32-.74.4-.09-.34-.41-.48-.44-.87.13-.14.18-.39.34-.5S29,32.9,29.1,32.8Z"/><path class="cls-3" d="M27.59,33.68c.07,0,.06,0,.1,0a3.83,3.83,0,0,1,.37.67,5.37,5.37,0,0,1,.7,1.24c-.23.06-.38.2-.6.27-.16-.46-.71-.71-.87-1.17h0v.1a4.32,4.32,0,0,1,.34,1.34,2.37,2.37,0,0,1-.6.23c-.17-.72-.71-1.3-.84-2l.3-.1c.13.53.52.94.67,1.47h0v-.1l-.4-1.54a2.67,2.67,0,0,1,.34-.1,6.69,6.69,0,0,0,1,1.27,11,11,0,0,1-.74-1.47A.38.38,0,0,0,27.59,33.68Z"/><path class="cls-3" d="M12.48,36.15l0-1h0a2.05,2.05,0,0,1-.84.57.79.79,0,0,0-.34-.17l0,0a12.48,12.48,0,0,1,1.17-.77l.47-.87a1.07,1.07,0,0,1,.3.17,1.32,1.32,0,0,0-.17.34,3.5,3.5,0,0,0-.27.47l.1,1.44h-.07A.69.69,0,0,0,12.48,36.15Z"/><path class="cls-3" d="M15,35.48a.61.61,0,0,0,0-.3c0-.11-.06-.13-.17-.17a.57.57,0,0,0-.37-.07c-.06.07-.1.07-.13.17a.29.29,0,0,0,0,.17c.18.16.37.28.57.44l.2.3a1.9,1.9,0,0,1-.07.54c-.1.07-.14.16-.27.2-.32.27-1-.1-1-.34a.59.59,0,0,1,0-.54,1.13,1.13,0,0,1,.3.13,1.16,1.16,0,0,1,.07.3c.2.11.59.27.64-.1-.3-.26-1.1-.69-.67-1.34.08-.13.26-.2.37-.3a1,1,0,0,1,1,.4,2.09,2.09,0,0,1,0,.57h-.07A.65.65,0,0,0,15,35.48Z"/><path class="cls-3" d="M25.18,36.49a11.23,11.23,0,0,0-.57-1.64c-.2.15-.52.1-.77.2s-.27.21-.4.3c-.16.67-.09,1.64.54,1.81a2.27,2.27,0,0,0,1.31-.2A1.49,1.49,0,0,0,25.18,36.49Zm-1.07.34-.23-.17c-.12-.17-.32-.81-.13-1s.37-.17.57-.3h.13l.4,1.37A1.73,1.73,0,0,1,24.11,36.82Z"/><path class="cls-3" d="M20,35.48c.09.8.61,1.45.74,2.21h-.4l-.54-1.61v0a8.83,8.83,0,0,0-.47,1.17c0,.1,0,.32-.13.37h-.4V37.6a8.06,8.06,0,0,0,.64-1.47,3.67,3.67,0,0,1,.2-.64Z"/><path class="cls-3" d="M21.76,35.35s-.06,0-.13,0c-.19.18-.4.27-.5.54-.33.86.24,2,1.21,1.68S23,35.32,21.76,35.35Zm.77,1.54c-.11.11-.13.24-.3.3s-.27,0-.44,0-.21-.13-.27-.23c-.21-.34-.14-1.1.2-1.21l.13-.07a.46.46,0,0,1,.34.1C22.54,35.94,22.56,36.5,22.53,36.89Z"/><path class="cls-3" d="M15.6,35.85c.28,0,.45.12.74.13l-.07.4h0a1.77,1.77,0,0,0-.7-.17Z"/><path class="cls-3" d="M18.38,35.38a1.24,1.24,0,0,0-.23.5,1.07,1.07,0,0,1-.44-.07.51.51,0,0,1-.3-.07l0-.47h0v0a.29.29,0,0,1-.17,0H17l.17,1.24a5.84,5.84,0,0,1,.2,1h0v0h.3c.11-.06.17-.39.23-.5a6.29,6.29,0,0,0,.74-1.61A.62.62,0,0,1,18.38,35.38Zm-.74,1.51V37c-.13-.17-.1-.55-.17-.77a.29.29,0,0,1,.17,0,1,1,0,0,1,.3,0A1.41,1.41,0,0,1,17.64,36.89Z"/><path class="cls-3" d="M3.2,15.38l.37.07-.23,1.17.5.1v-.07c.14-.23,0-.65.2-.87,0,0,0,0,.1,0l.27.1a7.76,7.76,0,0,0-.2.94h.07c.22.14.62.05.84.2,0,0,0,.06,0,.13a1,1,0,0,0-.07.27H5c-.15-.1-.37-.05-.57-.1-.48-.12-1.1-.13-1.57-.3C3,16.44,3.13,15.91,3.2,15.38Z"/><path class="cls-3" d="M37.31,16.65l-.37,0a10.09,10.09,0,0,0-.23-1.27,1.72,1.72,0,0,0-.47.13,5.07,5.07,0,0,1,.23,1.17h-.07a.63.63,0,0,1-.3.07,3.73,3.73,0,0,0-.23-1.11s0,0-.1,0a1.15,1.15,0,0,1-.47.13l.23,1.27-.37.07v-.07l-.34-1.54h.07a1.86,1.86,0,0,1,.47-.13c.51-.17,1.06-.38,1.61-.5C37,15.48,37.28,16,37.31,16.65Z"/><path class="cls-3" d="M34.36,14.11c0-.16-.08-.21-.1-.37a7.53,7.53,0,0,0,1.37-1h0a8.92,8.92,0,0,1-1.51.7.56.56,0,0,0-.13-.27c0-.06,0,0,0-.07a2.82,2.82,0,0,1,.47-.23A6.6,6.6,0,0,1,36,12.06c.06.24.2.43.27.67-.42.24-.77.71-1.24.87v0c.51-.05,1-.22,1.51-.23a5,5,0,0,1,.2.7,6.35,6.35,0,0,0-1.11.4c-.33.14-.67.19-1,.34v-.07a.6.6,0,0,1-.1-.3,10.09,10.09,0,0,1,1.51-.6v0h-.17Z"/><path class="cls-3" d="M3.9,14.78a13.23,13.23,0,0,0,1.61.54l.1-.3c-.1-.24-.63-.22-.84-.37a.42.42,0,0,1,.1-.3c.16-.4.78-.18,1.07-.37.09-.05.1-.29.17-.37v0a2,2,0,0,0-1.07.2c-.12-.08,0-.27-.1-.4a.69.69,0,0,0-.4-.3C4.42,13,4.27,13,4.1,13a2.36,2.36,0,0,0-.54.94,2.09,2.09,0,0,1-.17.57C3.46,14.75,3.7,14.71,3.9,14.78Zm.3-1.31a.41.41,0,0,1,.4.1,6.22,6.22,0,0,1-.2.94,5.07,5.07,0,0,1-.54-.17A7.31,7.31,0,0,1,4.21,13.47Z"/><path class="cls-3" d="M4.31,12.2a4.48,4.48,0,0,1,.77-1.47c.08.1.21.12.27.23a2.76,2.76,0,0,0-.5,1h0s0,0,0,0a.64.64,0,0,0,.4.2,3.11,3.11,0,0,1,.5-.94c.1.09.24.11.3.23a2.23,2.23,0,0,0-.47.94c.17,0,.41.25.54.2.18-.2.34-.87.6-.94.08.1.18.11.23.23-.2.22-.5,1.17-.74,1.24a3.05,3.05,0,0,0-.67-.34A4.63,4.63,0,0,0,4.31,12.2Z"/><path class="cls-3" d="M34.19,12.2c.32-.22.71-.22.94-.54a1.05,1.05,0,0,0-.47-1.57C33.33,9.7,32.18,12.25,34.19,12.2Zm-.7-1.11c.18-.2.74-.94,1.17-.54.26.09.3.41.27.7a2.49,2.49,0,0,1-.34.37c-.14.09-.33.1-.47.2l-.34,0a1.78,1.78,0,0,0-.27-.23A2.09,2.09,0,0,1,33.49,11.09Z"/><path class="cls-3" d="M7.29,11.36,5.41,10.12a11.5,11.5,0,0,1,.9-1.27h0v0a.63.63,0,0,1,.27.23,3,3,0,0,0-.67.9,1.23,1.23,0,0,1,.34.23l.07,0a2.73,2.73,0,0,0,.57-.77l.07,0a.58.58,0,0,1,.27.2,2.85,2.85,0,0,0-.6.84,1.17,1.17,0,0,1,.47.34h0v0A4.71,4.71,0,0,0,7.79,10h.07c.08.11.18.13.23.27A4,4,0,0,0,7.29,11.36Z"/><path class="cls-3" d="M31.68,9.65c.3-.11.46-.46.74-.6a1,1,0,0,0,.2.23,3.77,3.77,0,0,1-.3,1.11c.1.1.15.22.27.3.1-.37.37-.61.37-1.07a1.16,1.16,0,0,0,.6.1c.05-.05.1-.05.17-.1s.17-.23.27-.34c0-.76-.55-.93-.84-1.41-.22.08-.3.31-.47.44a9.5,9.5,0,0,0-.9.84c-.09.09-.2.13-.27.23h0v0A.64.64,0,0,1,31.68,9.65Zm1.41-1.21v0h0a2.26,2.26,0,0,0,.47.57.46.46,0,0,1-.13.37h-.23c-.15-.16-.39-.32-.47-.54h0A.77.77,0,0,1,33.09,8.44Z"/><path class="cls-3" d="M31.08,8.71l.44-.13a1.48,1.48,0,0,0,.8-1.41c-.26-.27-.52-.71-.9-.84l-.07,0c-.2.31-.49.55-.7.84A4.24,4.24,0,0,1,30,8V8C30.36,8.28,30.53,8.61,31.08,8.71Zm.34-1.88v0h0a6.3,6.3,0,0,0,.5.54c0,.6-.43.74-.77,1-.37,0-.47-.25-.7-.4A6.25,6.25,0,0,1,31.41,6.84Z"/><path class="cls-3" d="M8.06,8c.4.3.65.8,1.07,1.07a3.26,3.26,0,0,1,.7-.64l.2-.3a.71.71,0,0,0-.44-.77v0H9.26C9.38,7,9.16,6.85,9,6.67c-.78-.18-1,.48-1.51.8C7.61,7.7,7.87,7.87,8.06,8Zm1.17-.34c.3,0,.39.07.44.3-.18.2-.42.39-.57.6-.16-.11-.24-.29-.4-.4C8.83,8,9.08,7.87,9.23,7.67ZM8.66,7a.78.78,0,0,1,.27.07c0,.06,0,0,0,.07,0,.43-.33.48-.5.74-.18-.06-.25-.24-.4-.34A3.47,3.47,0,0,1,8.66,7Z"/><path class="cls-3" d="M29.47,7.64c-.16-.07-.29-.14-.3-.37a4.66,4.66,0,0,0,.17-1.44h0V5.9c-.29.24-.49,1-.8,1.14a.8.8,0,0,0-.23-.17,12.23,12.23,0,0,1,.9-1.44c.1-.16.12-.39.34-.44.17.16.28.11.27.47a12.26,12.26,0,0,0-.17,1.37h0a7,7,0,0,1,.87-1.21c.09.09.21.14.3.23h0C30.45,6.52,29.85,7,29.47,7.64Z"/><path class="cls-3" d="M11.11,7.44c-.82,0-1.75-.82-1.41-1.64.18-.42,1.24-.9,1.47-.23a.64.64,0,0,0-.23.2,1.39,1.39,0,0,0-.5-.13c-.06.06-.13.05-.2.1s-.13.19-.2.27a.93.93,0,0,0,1,1.07c.09-.09.23-.13.3-.23s0-.14.1-.2a.4.4,0,0,0-.2-.27c-.07.07-.31.23-.37.2a1.12,1.12,0,0,1-.2-.3c.28-.09.45-.32.74-.4.09.34.41.48.44.87-.13.14-.18.39-.34.5S11.22,7.35,11.11,7.44Z"/><path class="cls-3" d="M12.62,6.57c-.07,0-.06,0-.1,0a3.83,3.83,0,0,1-.37-.67,5.37,5.37,0,0,1-.7-1.24c.23-.06.38-.2.6-.27.16.46.71.71.87,1.17h0v-.1a4.32,4.32,0,0,1-.34-1.34,2.37,2.37,0,0,1,.6-.23c.17.72.71,1.3.84,2l-.3.1c-.13-.53-.52-.94-.67-1.47h0v.1l.4,1.54a2.67,2.67,0,0,1-.34.1,6.69,6.69,0,0,0-1-1.27,11,11,0,0,1,.74,1.47A.38.38,0,0,0,12.62,6.57Z"/><path class="cls-3" d="M27.73,4.09l0,1h0a2.05,2.05,0,0,1,.84-.57.79.79,0,0,0,.34.17l0,0a12.48,12.48,0,0,1-1.17.77l-.47.87A1.07,1.07,0,0,1,27,6.2a1.32,1.32,0,0,0,.17-.34,3.5,3.5,0,0,0,.27-.47L27.33,4h.07A.69.69,0,0,0,27.73,4.09Z"/><path class="cls-3" d="M25.25,4.76a.61.61,0,0,0,0,.3c0,.11.06.13.17.17a.57.57,0,0,0,.37.07c.06-.07.1-.07.13-.17A.29.29,0,0,0,26,5c-.18-.16-.37-.28-.57-.44l-.2-.3a1.9,1.9,0,0,1,.07-.54c.1-.07.14-.16.27-.2.32-.27,1,.1,1,.34a.59.59,0,0,1,0,.54,1.13,1.13,0,0,1-.3-.13,1.16,1.16,0,0,1-.07-.3c-.2-.11-.59-.27-.64.1.3.26,1.1.69.67,1.34-.08.13-.26.2-.37.3a1,1,0,0,1-1-.4,2.09,2.09,0,0,1,0-.57H25A.65.65,0,0,0,25.25,4.76Z"/><path class="cls-3" d="M15,3.75a11.23,11.23,0,0,0,.57,1.64c.2-.15.52-.1.77-.2s.27-.21.4-.3c.16-.67.09-1.64-.54-1.81a2.27,2.27,0,0,0-1.31.2A1.49,1.49,0,0,0,15,3.75Zm1.07-.34.23.17c.12.17.32.81.13,1s-.37.17-.57.3h-.13l-.4-1.37A1.73,1.73,0,0,1,16.1,3.42Z"/><path class="cls-3" d="M20.26,4.76c-.09-.8-.61-1.45-.74-2.21h.4l.54,1.61v0a8.83,8.83,0,0,0,.47-1.17c0-.1,0-.32.13-.37h.4v.07a8.06,8.06,0,0,0-.64,1.47,3.67,3.67,0,0,1-.2.64Z"/><path class="cls-3" d="M18.45,4.89s.06,0,.13,0c.19-.18.4-.27.5-.54.33-.86-.24-2-1.21-1.68S17.17,4.93,18.45,4.89Zm-.77-1.54c.11-.11.13-.24.3-.3s.27,0,.44,0,.21.13.27.23c.21.34.14,1.1-.2,1.21l-.13.07a.46.46,0,0,1-.34-.1C17.67,4.31,17.65,3.75,17.68,3.35Z"/><path class="cls-3" d="M24.61,4.39c-.28,0-.45-.12-.74-.13l.07-.4h0a1.77,1.77,0,0,0,.7.17Z"/><path class="cls-3" d="M21.83,4.86a1.24,1.24,0,0,0,.23-.5,1.07,1.07,0,0,1,.44.07.51.51,0,0,1,.3.07l0,.47h0V5A.29.29,0,0,1,23,5h.17L23,3.79a5.84,5.84,0,0,1-.2-1h0v0h-.3c-.11.06-.17.39-.23.5a6.29,6.29,0,0,0-.74,1.61A.62.62,0,0,1,21.83,4.86Zm.74-1.51V3.28c.13.17.1.55.17.77a.29.29,0,0,1-.17,0,1,1,0,0,1-.3,0A1.41,1.41,0,0,1,22.57,3.35Z"/><circle class="cls-4" cx="20.1" cy="20.1" r="13.4"/><path class="cls-3" d="M11.19,29.71h.54a1,1,0,0,1,.28,0,.49.49,0,0,1,.22.15.73.73,0,0,1,.14.26,1.33,1.33,0,0,1,0,.39,1.18,1.18,0,0,1,0,.35.74.74,0,0,1-.16.29.51.51,0,0,1-.21.13.81.81,0,0,1-.26,0h-.56Zm.3.28v1.08h.22l.18,0A.27.27,0,0,0,12,31a.36.36,0,0,0,.08-.16,1.18,1.18,0,0,0,0-.3,1.08,1.08,0,0,0,0-.29.38.38,0,0,0-.08-.16.27.27,0,0,0-.14-.08l-.24,0Z"/><path class="cls-3" d="M12.58,30.54a1.14,1.14,0,0,1,.07-.42.78.78,0,0,1,.14-.22.58.58,0,0,1,.19-.15.74.74,0,0,1,.32-.06.65.65,0,0,1,.52.22,1.09,1.09,0,0,1,0,1.24.72.72,0,0,1-1,0A.9.9,0,0,1,12.58,30.54Zm.31,0a.66.66,0,0,0,.12.42.37.37,0,0,0,.58,0,.67.67,0,0,0,.11-.43.66.66,0,0,0-.11-.42.38.38,0,0,0-.59,0A.66.66,0,0,0,12.89,30.52Z"/><path class="cls-3" d="M14.54,31.34,14,29.71h.32l.37,1.21.36-1.21h.31l-.53,1.63Z"/><path class="cls-3" d="M16.76,31.34h-.32L16.31,31h-.59l-.12.37h-.31l.57-1.63h.31Zm-.55-.65-.2-.61-.2.61Z"/><path class="cls-3" d="M16.76,30.71v-.31h.55v.31Z"/><path class="cls-3" d="M17.47,30.81l.29,0a.41.41,0,0,0,.11.24.3.3,0,0,0,.22.08A.31.31,0,0,0,18.3,31a.21.21,0,0,0,.07-.16.16.16,0,0,0,0-.1.24.24,0,0,0-.11-.07L18,30.63a.77.77,0,0,1-.33-.16.45.45,0,0,1-.14-.33.45.45,0,0,1,.06-.23.41.41,0,0,1,.18-.17.67.67,0,0,1,.29-.06.58.58,0,0,1,.42.13.5.5,0,0,1,.15.36h-.3a.29.29,0,0,0-.08-.18.28.28,0,0,0-.19-.06.31.31,0,0,0-.2.06.12.12,0,0,0,0,.1.13.13,0,0,0,0,.1.73.73,0,0,0,.27.11,1.34,1.34,0,0,1,.32.12.43.43,0,0,1,.16.17.53.53,0,0,1,.06.26.52.52,0,0,1-.07.26.43.43,0,0,1-.2.18.76.76,0,0,1-.32.06.59.59,0,0,1-.43-.14A.65.65,0,0,1,17.47,30.81Z"/><path class="cls-3" d="M19.25,31.34v-.69l-.54-.95h.35l.35.65.34-.65h.34l-.54.95v.69Z"/><path class="cls-3" d="M20.19,31.34V29.71h.29l.6,1.09V29.71h.28v1.63h-.3l-.59-1.06v1.06Z"/><path class="cls-3" d="M21.67,29.71h.54a1,1,0,0,1,.28,0,.49.49,0,0,1,.22.15.73.73,0,0,1,.14.26,1.33,1.33,0,0,1,0,.39,1.18,1.18,0,0,1,0,.35.74.74,0,0,1-.16.29.51.51,0,0,1-.21.13.81.81,0,0,1-.26,0h-.56ZM22,30v1.08h.22l.18,0a.27.27,0,0,0,.12-.07.36.36,0,0,0,.08-.16,1.18,1.18,0,0,0,0-.3,1.08,1.08,0,0,0,0-.29.38.38,0,0,0-.08-.16.27.27,0,0,0-.14-.08l-.24,0Z"/><path class="cls-3" d="M23.14,31.34V29.71h.62a1,1,0,0,1,.34,0,.35.35,0,0,1,.17.16.51.51,0,0,1,.06.26.47.47,0,0,1-.1.3.45.45,0,0,1-.29.15.71.71,0,0,1,.16.14,1.87,1.87,0,0,1,.17.27l.18.32h-.35L23.9,31a2.31,2.31,0,0,0-.16-.24.23.23,0,0,0-.09-.07l-.15,0h-.06v.68Zm.3-.94h.22a1,1,0,0,0,.27,0,.16.16,0,0,0,.08-.07.23.23,0,0,0,0-.12.21.21,0,0,0,0-.13.18.18,0,0,0-.11-.06h-.45Z"/><path class="cls-3" d="M24.52,30.54a1.14,1.14,0,0,1,.07-.42.78.78,0,0,1,.14-.22.58.58,0,0,1,.19-.15.74.74,0,0,1,.32-.06.65.65,0,0,1,.52.22,1.09,1.09,0,0,1,0,1.24.72.72,0,0,1-1,0A.9.9,0,0,1,24.52,30.54Zm.31,0a.66.66,0,0,0,.12.42.37.37,0,0,0,.58,0,.67.67,0,0,0,.11-.43.66.66,0,0,0-.11-.42.38.38,0,0,0-.59,0A.66.66,0,0,0,24.83,30.52Z"/><path class="cls-3" d="M26.16,31.34V29.71h.43l.26,1.11.26-1.11h.44v1.63h-.27V30.06L27,31.34h-.28l-.28-1.29v1.29Z"/><path class="cls-3" d="M27.9,31.34V29.71H29V30H28.2v.36h.74v.28H28.2v.44H29v.28Z"/><path class="cls-3" d="M12,10.16l.42.16a1.11,1.11,0,0,1-.33.61.91.91,0,0,1-1.24-.12,1.45,1.45,0,0,1-.3-1,1.52,1.52,0,0,1,.3-1,.87.87,0,0,1,.71-.31.84.84,0,0,1,.6.24,1,1,0,0,1,.25.5L12,9.38a.54.54,0,0,0-.16-.31A.42.42,0,0,0,11.51,9a.47.47,0,0,0-.39.2,1.1,1.1,0,0,0-.15.65,1.17,1.17,0,0,0,.15.67.45.45,0,0,0,.38.2.4.4,0,0,0,.3-.13A.79.79,0,0,0,12,10.16Z"/><path class="cls-3" d="M12.62,8.57h.43V9.93a3.21,3.21,0,0,0,0,.41.41.41,0,0,0,.14.26.5.5,0,0,0,.53,0,.32.32,0,0,0,.13-.18,2.07,2.07,0,0,0,0-.49V8.57h.43V9.89a3.35,3.35,0,0,1-.06.73A.62.62,0,0,1,14,11a.88.88,0,0,1-.52.14A1,1,0,0,1,13,11a.66.66,0,0,1-.27-.32,2.34,2.34,0,0,1-.08-.77Z"/><path class="cls-3" d="M14.53,10.26l.42,0q.07.48.47.48a.45.45,0,0,0,.31-.1.31.31,0,0,0,.11-.24.26.26,0,0,0,0-.15.29.29,0,0,0-.12-.1L15.29,10a1.34,1.34,0,0,1-.41-.17.66.66,0,0,1-.2-.25.73.73,0,0,1-.08-.33.71.71,0,0,1,.1-.37A.62.62,0,0,1,15,8.62a1,1,0,0,1,.42-.08.84.84,0,0,1,.59.2.76.76,0,0,1,.22.56l-.43,0A.44.44,0,0,0,15.66,9a.41.41,0,0,0-.27-.08.45.45,0,0,0-.27.07.21.21,0,0,0-.09.17.21.21,0,0,0,.09.17,1.24,1.24,0,0,0,.39.15,1.67,1.67,0,0,1,.47.19.65.65,0,0,1,.22.26.87.87,0,0,1,.08.38.77.77,0,0,1-.21.55.87.87,0,0,1-.66.22Q14.62,11.12,14.53,10.26Z"/><path class="cls-3" d="M17,11.08V9h-.64V8.57H18V9h-.64v2.08Z"/><path class="cls-3" d="M18.09,9.84a1.71,1.71,0,0,1,.14-.74,1,1,0,0,1,.36-.43,1,1,0,0,1,.54-.14.94.94,0,0,1,.75.34,1.42,1.42,0,0,1,.29,1,1.45,1.45,0,0,1-.31,1,1,1,0,0,1-1.47,0A1.43,1.43,0,0,1,18.09,9.84Zm.45,0a1,1,0,0,0,.17.65.52.52,0,0,0,.43.22.52.52,0,0,0,.42-.21,1.06,1.06,0,0,0,.17-.66,1,1,0,0,0-.16-.64.55.55,0,0,0-.86,0A1,1,0,0,0,18.54,9.82Z"/><path class="cls-3" d="M20.36,11.08V8.57H21l.39,1.71.39-1.71h.65v2.5H22v-2l-.43,2h-.42l-.42-2v2Z"/><path class="cls-3" d="M23.4,8.57h.86a1.39,1.39,0,0,1,.5.06.54.54,0,0,1,.24.22.68.68,0,0,1,0,.68.54.54,0,0,1-.22.22.58.58,0,0,1,.3.22.66.66,0,0,1,.11.38.76.76,0,0,1-.14.46.56.56,0,0,1-.32.23,3.51,3.51,0,0,1-.61,0H23.4Zm.43.42v.58h.6a.27.27,0,0,0,.17-.09.34.34,0,0,0,0-.38A.21.21,0,0,0,24.5,9l-.42,0Zm0,1v.67h.4a1.32,1.32,0,0,0,.34,0,.25.25,0,0,0,.13-.1.35.35,0,0,0,.05-.2.35.35,0,0,0-.05-.2.28.28,0,0,0-.15-.11,1.43,1.43,0,0,0-.37,0Z"/><path class="cls-3" d="M26.42,10.16V9.74h.93v1A1.15,1.15,0,0,1,27,11a1.28,1.28,0,0,1-.52.11,1,1,0,0,1-.56-.15,1,1,0,0,1-.38-.45,1.61,1.61,0,0,1-.14-.7,1.59,1.59,0,0,1,.14-.71,1,1,0,0,1,.37-.44,1,1,0,0,1,.55-.15,1,1,0,0,1,.61.19.88.88,0,0,1,.3.55l-.43.09a.53.53,0,0,0-.18-.3.48.48,0,0,0-.31-.1.56.56,0,0,0-.45.21,1,1,0,0,0-.17.63,1.1,1.1,0,0,0,.19.69.52.52,0,0,0,.43.2.68.68,0,0,0,.26-.06.82.82,0,0,0,.24-.16v-.32Z"/><path class="cls-3" d="M27.6,11.08V8.57h.65l.39,1.71L29,8.57h.65v2.5h-.4v-2l-.43,2h-.42l-.42-2v2Z"/><path class="cls-3" d="M24.67,18.09a4.5,4.5,0,1,0,4.5,4.5A4.5,4.5,0,0,0,24.67,18.09Zm2.51,5.16H25.33v1.85H24V23.25H22.16V21.93H24V20.08h1.32v1.85h1.85Z"/><path class="cls-3" d="M26.92,16.37v-3.7l-9.79,1.85v9.9a4,4,0,0,0-2.65-.91C12.58,23.52,11,24.64,11,26s1.54,2.51,3.44,2.51,3.34-1.06,3.43-2.38h0V18.08l8.2-1.55v1.61a5.12,5.12,0,0,1,.79.25Z"/><path class="cls-3" d="M18.48,26.23V18.6l7.08-1.34v.42a4.55,4.55,0,0,0-.89-.09,5.12,5.12,0,1,0,2.81.88V12l-.33.06-.33.06L17,14l-.23,0-.23,0v9.35A5,5,0,0,0,14.48,23c-2.21,0-4,1.38-4,3.08s1.8,3.08,4,3.08a3.89,3.89,0,0,0,3.9-2.38m-.22-.31c-.27,1.35-1.82,2.38-3.68,2.38-2.05,0-3.72-1.25-3.72-2.79s1.67-2.79,3.72-2.79a4.54,4.54,0,0,1,2.36.63V14.32l.23,0,9.79-1.85.33-.06v6.19h0a4.8,4.8,0,1,1-2.52-.71,4.73,4.73,0,0,1,1.17.16V16.89L18.2,18.34v7.86"/></g></g></svg>