<svg xmlns="http://www.w3.org/2000/svg" preserveAspectRatio='none' viewBox="0 0 31.54 32.41"><defs><style>.cls-1{fill:#fff;}</style></defs><title>アセット 34</title><g id="レイヤー_2" data-name="レイヤー 2"><g id="レイヤー_3" data-name="レイヤー 3"><path class="cls-1" d="M27.14,20.17V13.63A11.49,11.49,0,0,0,18.48,2.54,2.7,2.7,0,0,0,15.77,0a2.61,2.61,0,0,0-2.71,2.47A11.55,11.55,0,0,0,4.44,13.63V20c0,3.09-2,3.63-4.44,6.15H31.54C29.13,23.59,27.14,23.26,27.14,20.17ZM15.77,32.41a6.13,6.13,0,0,0,5.71-5H10.06A6.13,6.13,0,0,0,15.77,32.41Z"/></g></g></svg>